<mxfile host="app.diagrams.net" agent="Mozilla/5.0 (Windows NT 10.0; Win64; x64) AppleWebKit/537.36 (KHTML, like Gecko) Chrome/132.0.0.0 Safari/537.36" version="26.0.14">
  <diagram name="Halaman-1" id="9N1V7XI8liEFcILFLqtX">
    <mxGraphModel dx="1034" dy="493" grid="0" gridSize="10" guides="1" tooltips="1" connect="1" arrows="1" fold="1" page="1" pageScale="1" pageWidth="1169" pageHeight="827" math="0" shadow="0">
      <root>
        <mxCell id="0" />
        <mxCell id="1" parent="0" />
        <mxCell id="e7BuIWy1d0rTeOh9mKWK-41" style="edgeStyle=orthogonalEdgeStyle;rounded=0;orthogonalLoop=1;jettySize=auto;html=1;entryX=0;entryY=0.5;entryDx=0;entryDy=0;" parent="1" source="e7BuIWy1d0rTeOh9mKWK-15" target="e7BuIWy1d0rTeOh9mKWK-40" edge="1">
          <mxGeometry relative="1" as="geometry" />
        </mxCell>
        <mxCell id="e7BuIWy1d0rTeOh9mKWK-42" value="&lt;font style=&quot;font-size: 11px;&quot;&gt;A = 1&lt;/font&gt;" style="edgeLabel;html=1;align=center;verticalAlign=middle;resizable=0;points=[];" parent="e7BuIWy1d0rTeOh9mKWK-41" vertex="1" connectable="0">
          <mxGeometry x="-0.2584" y="-3" relative="1" as="geometry">
            <mxPoint as="offset" />
          </mxGeometry>
        </mxCell>
        <mxCell id="e7BuIWy1d0rTeOh9mKWK-15" value="&lt;font style=&quot;font-size: 18px;&quot;&gt;1&lt;/font&gt;" style="ellipse;whiteSpace=wrap;html=1;aspect=fixed;fillColor=#327CFC;" parent="1" vertex="1">
          <mxGeometry x="182" y="240" width="39" height="39" as="geometry" />
        </mxCell>
        <mxCell id="e7BuIWy1d0rTeOh9mKWK-40" value="&lt;font style=&quot;font-size: 18px;&quot;&gt;3&lt;/font&gt;" style="ellipse;whiteSpace=wrap;html=1;aspect=fixed;fillColor=#327CFC;" parent="1" vertex="1">
          <mxGeometry x="316" y="240" width="40" height="40" as="geometry" />
        </mxCell>
        <mxCell id="e7BuIWy1d0rTeOh9mKWK-62" style="edgeStyle=none;rounded=0;orthogonalLoop=1;jettySize=auto;html=1;entryX=0;entryY=0.5;entryDx=0;entryDy=0;" parent="1" source="e7BuIWy1d0rTeOh9mKWK-54" target="e7BuIWy1d0rTeOh9mKWK-40" edge="1">
          <mxGeometry relative="1" as="geometry">
            <mxPoint x="316" y="355" as="targetPoint" />
          </mxGeometry>
        </mxCell>
        <mxCell id="e7BuIWy1d0rTeOh9mKWK-63" value="B = 2" style="edgeLabel;html=1;align=center;verticalAlign=middle;resizable=0;points=[];" parent="e7BuIWy1d0rTeOh9mKWK-62" vertex="1" connectable="0">
          <mxGeometry x="-0.1235" y="2" relative="1" as="geometry">
            <mxPoint as="offset" />
          </mxGeometry>
        </mxCell>
        <mxCell id="e7BuIWy1d0rTeOh9mKWK-54" value="&lt;font style=&quot;font-size: 18px;&quot;&gt;2&lt;/font&gt;" style="ellipse;whiteSpace=wrap;html=1;aspect=fixed;fillColor=#327CFC;" parent="1" vertex="1">
          <mxGeometry x="181" y="324" width="40" height="40" as="geometry" />
        </mxCell>
        <mxCell id="e7BuIWy1d0rTeOh9mKWK-88" style="edgeStyle=none;rounded=0;orthogonalLoop=1;jettySize=auto;html=1;entryX=0;entryY=0.5;entryDx=0;entryDy=0;" parent="1" source="e7BuIWy1d0rTeOh9mKWK-72" target="e7BuIWy1d0rTeOh9mKWK-86" edge="1">
          <mxGeometry relative="1" as="geometry" />
        </mxCell>
        <mxCell id="e7BuIWy1d0rTeOh9mKWK-90" value="D = 2" style="edgeLabel;html=1;align=center;verticalAlign=middle;resizable=0;points=[];" parent="e7BuIWy1d0rTeOh9mKWK-88" vertex="1" connectable="0">
          <mxGeometry x="-0.1612" y="-1" relative="1" as="geometry">
            <mxPoint as="offset" />
          </mxGeometry>
        </mxCell>
        <mxCell id="e7BuIWy1d0rTeOh9mKWK-72" value="&lt;span style=&quot;font-size: 18px;&quot;&gt;4&lt;/span&gt;" style="ellipse;whiteSpace=wrap;html=1;aspect=fixed;fillColor=#327CFC;" parent="1" vertex="1">
          <mxGeometry x="449" y="239" width="40" height="40" as="geometry" />
        </mxCell>
        <mxCell id="e7BuIWy1d0rTeOh9mKWK-73" style="edgeStyle=none;rounded=0;orthogonalLoop=1;jettySize=auto;html=1;entryX=0;entryY=0.5;entryDx=0;entryDy=0;" parent="1" source="e7BuIWy1d0rTeOh9mKWK-40" target="e7BuIWy1d0rTeOh9mKWK-72" edge="1">
          <mxGeometry relative="1" as="geometry" />
        </mxCell>
        <mxCell id="e7BuIWy1d0rTeOh9mKWK-75" value="C = 3&amp;nbsp;" style="edgeLabel;html=1;align=center;verticalAlign=middle;resizable=0;points=[];" parent="e7BuIWy1d0rTeOh9mKWK-73" vertex="1" connectable="0">
          <mxGeometry x="-0.0142" y="-4" relative="1" as="geometry">
            <mxPoint y="-5" as="offset" />
          </mxGeometry>
        </mxCell>
        <mxCell id="e7BuIWy1d0rTeOh9mKWK-92" style="edgeStyle=none;rounded=0;orthogonalLoop=1;jettySize=auto;html=1;entryX=0;entryY=0.5;entryDx=0;entryDy=0;" parent="1" source="e7BuIWy1d0rTeOh9mKWK-86" target="e7BuIWy1d0rTeOh9mKWK-91" edge="1">
          <mxGeometry relative="1" as="geometry" />
        </mxCell>
        <mxCell id="e7BuIWy1d0rTeOh9mKWK-93" value="E = 3" style="edgeLabel;html=1;align=center;verticalAlign=middle;resizable=0;points=[];" parent="e7BuIWy1d0rTeOh9mKWK-92" vertex="1" connectable="0">
          <mxGeometry x="0.0218" relative="1" as="geometry">
            <mxPoint as="offset" />
          </mxGeometry>
        </mxCell>
        <mxCell id="e7BuIWy1d0rTeOh9mKWK-86" value="&lt;span style=&quot;font-size: 18px;&quot;&gt;5&lt;/span&gt;" style="ellipse;whiteSpace=wrap;html=1;aspect=fixed;fillColor=#327CFC;" parent="1" vertex="1">
          <mxGeometry x="560" y="239" width="40" height="40" as="geometry" />
        </mxCell>
        <mxCell id="e7BuIWy1d0rTeOh9mKWK-95" style="edgeStyle=none;rounded=0;orthogonalLoop=1;jettySize=auto;html=1;" parent="1" source="e7BuIWy1d0rTeOh9mKWK-91" target="e7BuIWy1d0rTeOh9mKWK-94" edge="1">
          <mxGeometry relative="1" as="geometry" />
        </mxCell>
        <mxCell id="e7BuIWy1d0rTeOh9mKWK-96" value="F = 1" style="edgeLabel;html=1;align=center;verticalAlign=middle;resizable=0;points=[];" parent="e7BuIWy1d0rTeOh9mKWK-95" vertex="1" connectable="0">
          <mxGeometry x="-0.3286" y="1" relative="1" as="geometry">
            <mxPoint as="offset" />
          </mxGeometry>
        </mxCell>
        <mxCell id="e7BuIWy1d0rTeOh9mKWK-91" value="&lt;span style=&quot;font-size: 18px;&quot;&gt;6&lt;/span&gt;" style="ellipse;whiteSpace=wrap;html=1;aspect=fixed;fillColor=#327CFC;" parent="1" vertex="1">
          <mxGeometry x="663" y="240" width="40" height="40" as="geometry" />
        </mxCell>
        <mxCell id="e7BuIWy1d0rTeOh9mKWK-104" style="edgeStyle=none;rounded=0;orthogonalLoop=1;jettySize=auto;html=1;entryX=0.5;entryY=0;entryDx=0;entryDy=0;" parent="1" source="e7BuIWy1d0rTeOh9mKWK-94" target="e7BuIWy1d0rTeOh9mKWK-97" edge="1">
          <mxGeometry relative="1" as="geometry" />
        </mxCell>
        <mxCell id="e7BuIWy1d0rTeOh9mKWK-106" value="G = 5" style="edgeLabel;html=1;align=center;verticalAlign=middle;resizable=0;points=[];" parent="e7BuIWy1d0rTeOh9mKWK-104" vertex="1" connectable="0">
          <mxGeometry x="-0.1904" y="2" relative="1" as="geometry">
            <mxPoint y="-1" as="offset" />
          </mxGeometry>
        </mxCell>
        <mxCell id="e7BuIWy1d0rTeOh9mKWK-94" value="&lt;span style=&quot;font-size: 18px;&quot;&gt;7&lt;/span&gt;" style="ellipse;whiteSpace=wrap;html=1;aspect=fixed;fillColor=#327CFC;" parent="1" vertex="1">
          <mxGeometry x="766" y="239" width="40" height="40" as="geometry" />
        </mxCell>
        <mxCell id="e7BuIWy1d0rTeOh9mKWK-105" style="edgeStyle=none;rounded=0;orthogonalLoop=1;jettySize=auto;html=1;entryX=0.5;entryY=0;entryDx=0;entryDy=0;exitX=0.5;exitY=1;exitDx=0;exitDy=0;" parent="1" source="e7BuIWy1d0rTeOh9mKWK-97" target="e7BuIWy1d0rTeOh9mKWK-98" edge="1">
          <mxGeometry relative="1" as="geometry">
            <mxPoint x="817" y="377" as="sourcePoint" />
            <mxPoint x="817.7999999999937" y="439" as="targetPoint" />
          </mxGeometry>
        </mxCell>
        <mxCell id="e7BuIWy1d0rTeOh9mKWK-107" value="H = 5" style="edgeLabel;html=1;align=center;verticalAlign=middle;resizable=0;points=[];" parent="e7BuIWy1d0rTeOh9mKWK-105" vertex="1" connectable="0">
          <mxGeometry x="-0.1024" y="-2" relative="1" as="geometry">
            <mxPoint as="offset" />
          </mxGeometry>
        </mxCell>
        <mxCell id="e7BuIWy1d0rTeOh9mKWK-97" value="&lt;span style=&quot;font-size: 18px;&quot;&gt;8&lt;/span&gt;" style="ellipse;whiteSpace=wrap;html=1;aspect=fixed;fillColor=#327CFC;" parent="1" vertex="1">
          <mxGeometry x="766" y="327" width="40" height="40" as="geometry" />
        </mxCell>
        <mxCell id="e7BuIWy1d0rTeOh9mKWK-108" style="edgeStyle=none;rounded=0;orthogonalLoop=1;jettySize=auto;html=1;" parent="1" source="e7BuIWy1d0rTeOh9mKWK-98" target="e7BuIWy1d0rTeOh9mKWK-101" edge="1">
          <mxGeometry relative="1" as="geometry" />
        </mxCell>
        <mxCell id="e7BuIWy1d0rTeOh9mKWK-114" value="L = 3" style="edgeLabel;html=1;align=center;verticalAlign=middle;resizable=0;points=[];" parent="e7BuIWy1d0rTeOh9mKWK-108" vertex="1" connectable="0">
          <mxGeometry x="-0.0662" relative="1" as="geometry">
            <mxPoint as="offset" />
          </mxGeometry>
        </mxCell>
        <mxCell id="e7BuIWy1d0rTeOh9mKWK-109" style="edgeStyle=none;rounded=0;orthogonalLoop=1;jettySize=auto;html=1;entryX=1;entryY=0.5;entryDx=0;entryDy=0;" parent="1" source="e7BuIWy1d0rTeOh9mKWK-98" target="e7BuIWy1d0rTeOh9mKWK-99" edge="1">
          <mxGeometry relative="1" as="geometry" />
        </mxCell>
        <mxCell id="e7BuIWy1d0rTeOh9mKWK-112" value="I = 5" style="edgeLabel;html=1;align=center;verticalAlign=middle;resizable=0;points=[];" parent="e7BuIWy1d0rTeOh9mKWK-109" vertex="1" connectable="0">
          <mxGeometry x="0.1002" relative="1" as="geometry">
            <mxPoint as="offset" />
          </mxGeometry>
        </mxCell>
        <mxCell id="e7BuIWy1d0rTeOh9mKWK-98" value="&lt;span style=&quot;font-size: 18px;&quot;&gt;9&lt;/span&gt;" style="ellipse;whiteSpace=wrap;html=1;aspect=fixed;fillColor=#327CFC;" parent="1" vertex="1">
          <mxGeometry x="766" y="410" width="40" height="40" as="geometry" />
        </mxCell>
        <mxCell id="e7BuIWy1d0rTeOh9mKWK-116" style="edgeStyle=none;rounded=0;orthogonalLoop=1;jettySize=auto;html=1;entryX=1;entryY=0.5;entryDx=0;entryDy=0;" parent="1" source="e7BuIWy1d0rTeOh9mKWK-99" target="e7BuIWy1d0rTeOh9mKWK-102" edge="1">
          <mxGeometry relative="1" as="geometry">
            <mxPoint x="583.3848035475787" y="427" as="targetPoint" />
          </mxGeometry>
        </mxCell>
        <mxCell id="e7BuIWy1d0rTeOh9mKWK-117" value="J = 4" style="edgeLabel;html=1;align=center;verticalAlign=middle;resizable=0;points=[];" parent="e7BuIWy1d0rTeOh9mKWK-116" vertex="1" connectable="0">
          <mxGeometry x="0.0371" y="-1" relative="1" as="geometry">
            <mxPoint as="offset" />
          </mxGeometry>
        </mxCell>
        <mxCell id="e7BuIWy1d0rTeOh9mKWK-122" style="edgeStyle=none;rounded=0;orthogonalLoop=1;jettySize=auto;html=1;exitX=0.28;exitY=0.855;exitDx=0;exitDy=0;exitPerimeter=0;entryX=0;entryY=0.5;entryDx=0;entryDy=0;" parent="1" source="e7BuIWy1d0rTeOh9mKWK-99" target="e7BuIWy1d0rTeOh9mKWK-100" edge="1">
          <mxGeometry relative="1" as="geometry">
            <mxPoint x="666" y="499" as="targetPoint" />
          </mxGeometry>
        </mxCell>
        <mxCell id="e7BuIWy1d0rTeOh9mKWK-123" value="N = 1" style="edgeLabel;html=1;align=center;verticalAlign=middle;resizable=0;points=[];" parent="e7BuIWy1d0rTeOh9mKWK-122" vertex="1" connectable="0">
          <mxGeometry x="-0.0772" y="3" relative="1" as="geometry">
            <mxPoint as="offset" />
          </mxGeometry>
        </mxCell>
        <mxCell id="e7BuIWy1d0rTeOh9mKWK-99" value="&lt;span style=&quot;font-size: 18px;&quot;&gt;10&lt;/span&gt;" style="ellipse;whiteSpace=wrap;html=1;aspect=fixed;fillColor=#327CFC;" parent="1" vertex="1">
          <mxGeometry x="646" y="410" width="40" height="40" as="geometry" />
        </mxCell>
        <mxCell id="e7BuIWy1d0rTeOh9mKWK-138" style="edgeStyle=none;rounded=0;orthogonalLoop=1;jettySize=auto;html=1;entryX=0.5;entryY=0;entryDx=0;entryDy=0;" parent="1" source="e7BuIWy1d0rTeOh9mKWK-100" target="e7BuIWy1d0rTeOh9mKWK-137" edge="1">
          <mxGeometry relative="1" as="geometry" />
        </mxCell>
        <mxCell id="e7BuIWy1d0rTeOh9mKWK-139" value="O = 5" style="edgeLabel;html=1;align=center;verticalAlign=middle;resizable=0;points=[];" parent="e7BuIWy1d0rTeOh9mKWK-138" vertex="1" connectable="0">
          <mxGeometry x="0.0897" y="1" relative="1" as="geometry">
            <mxPoint as="offset" />
          </mxGeometry>
        </mxCell>
        <mxCell id="e7BuIWy1d0rTeOh9mKWK-100" value="&lt;span style=&quot;font-size: 18px;&quot;&gt;13&lt;/span&gt;" style="ellipse;whiteSpace=wrap;html=1;aspect=fixed;fillColor=#327CFC;direction=south;" parent="1" vertex="1">
          <mxGeometry x="638" y="504" width="40" height="40" as="geometry" />
        </mxCell>
        <mxCell id="e7BuIWy1d0rTeOh9mKWK-131" style="edgeStyle=none;rounded=0;orthogonalLoop=1;jettySize=auto;html=1;entryX=0.5;entryY=0;entryDx=0;entryDy=0;" parent="1" source="e7BuIWy1d0rTeOh9mKWK-101" target="e7BuIWy1d0rTeOh9mKWK-100" edge="1">
          <mxGeometry relative="1" as="geometry" />
        </mxCell>
        <mxCell id="e7BuIWy1d0rTeOh9mKWK-132" value="M = 4" style="edgeLabel;html=1;align=center;verticalAlign=middle;resizable=0;points=[];" parent="e7BuIWy1d0rTeOh9mKWK-131" vertex="1" connectable="0">
          <mxGeometry x="0.0205" y="2" relative="1" as="geometry">
            <mxPoint x="1" y="-2" as="offset" />
          </mxGeometry>
        </mxCell>
        <mxCell id="e7BuIWy1d0rTeOh9mKWK-101" value="&lt;span style=&quot;font-size: 18px;&quot;&gt;11&lt;/span&gt;" style="ellipse;whiteSpace=wrap;html=1;aspect=fixed;fillColor=#327CFC;" parent="1" vertex="1">
          <mxGeometry x="766" y="504" width="40" height="40" as="geometry" />
        </mxCell>
        <mxCell id="e7BuIWy1d0rTeOh9mKWK-130" style="edgeStyle=none;rounded=0;orthogonalLoop=1;jettySize=auto;html=1;entryX=0;entryY=1;entryDx=0;entryDy=0;" parent="1" source="e7BuIWy1d0rTeOh9mKWK-102" target="e7BuIWy1d0rTeOh9mKWK-100" edge="1">
          <mxGeometry relative="1" as="geometry" />
        </mxCell>
        <mxCell id="e7BuIWy1d0rTeOh9mKWK-133" value="Text" style="edgeLabel;html=1;align=center;verticalAlign=middle;resizable=0;points=[];" parent="e7BuIWy1d0rTeOh9mKWK-130" vertex="1" connectable="0">
          <mxGeometry x="-0.1391" y="-2" relative="1" as="geometry">
            <mxPoint y="-1" as="offset" />
          </mxGeometry>
        </mxCell>
        <mxCell id="e7BuIWy1d0rTeOh9mKWK-134" value="K = 3" style="edgeLabel;html=1;align=center;verticalAlign=middle;resizable=0;points=[];" parent="e7BuIWy1d0rTeOh9mKWK-130" vertex="1" connectable="0">
          <mxGeometry x="-0.0544" relative="1" as="geometry">
            <mxPoint as="offset" />
          </mxGeometry>
        </mxCell>
        <mxCell id="e7BuIWy1d0rTeOh9mKWK-102" value="&lt;span style=&quot;font-size: 18px;&quot;&gt;12&lt;/span&gt;" style="ellipse;whiteSpace=wrap;html=1;aspect=fixed;fillColor=#327CFC;" parent="1" vertex="1">
          <mxGeometry x="542" y="410" width="40" height="40" as="geometry" />
        </mxCell>
        <mxCell id="e7BuIWy1d0rTeOh9mKWK-141" style="edgeStyle=none;rounded=0;orthogonalLoop=1;jettySize=auto;html=1;entryX=0.5;entryY=0;entryDx=0;entryDy=0;" parent="1" source="e7BuIWy1d0rTeOh9mKWK-137" target="e7BuIWy1d0rTeOh9mKWK-140" edge="1">
          <mxGeometry relative="1" as="geometry" />
        </mxCell>
        <mxCell id="e7BuIWy1d0rTeOh9mKWK-142" value="P = 1" style="edgeLabel;html=1;align=center;verticalAlign=middle;resizable=0;points=[];" parent="e7BuIWy1d0rTeOh9mKWK-141" vertex="1" connectable="0">
          <mxGeometry x="0.0215" y="1" relative="1" as="geometry">
            <mxPoint as="offset" />
          </mxGeometry>
        </mxCell>
        <mxCell id="e7BuIWy1d0rTeOh9mKWK-137" value="&lt;span style=&quot;font-size: 18px;&quot;&gt;14&lt;/span&gt;" style="ellipse;whiteSpace=wrap;html=1;aspect=fixed;fillColor=#327CFC;direction=south;" parent="1" vertex="1">
          <mxGeometry x="536" y="504" width="40" height="40" as="geometry" />
        </mxCell>
        <mxCell id="e7BuIWy1d0rTeOh9mKWK-145" style="edgeStyle=none;rounded=0;orthogonalLoop=1;jettySize=auto;html=1;entryX=0.5;entryY=0;entryDx=0;entryDy=0;" parent="1" source="e7BuIWy1d0rTeOh9mKWK-140" target="e7BuIWy1d0rTeOh9mKWK-143" edge="1">
          <mxGeometry relative="1" as="geometry" />
        </mxCell>
        <mxCell id="e7BuIWy1d0rTeOh9mKWK-147" value="Q = 4" style="edgeLabel;html=1;align=center;verticalAlign=middle;resizable=0;points=[];" parent="e7BuIWy1d0rTeOh9mKWK-145" vertex="1" connectable="0">
          <mxGeometry x="-0.1481" y="-1" relative="1" as="geometry">
            <mxPoint as="offset" />
          </mxGeometry>
        </mxCell>
        <mxCell id="e7BuIWy1d0rTeOh9mKWK-146" style="edgeStyle=none;rounded=0;orthogonalLoop=1;jettySize=auto;html=1;" parent="1" source="e7BuIWy1d0rTeOh9mKWK-140" target="e7BuIWy1d0rTeOh9mKWK-144" edge="1">
          <mxGeometry relative="1" as="geometry" />
        </mxCell>
        <mxCell id="e7BuIWy1d0rTeOh9mKWK-148" value="R = 7" style="edgeLabel;html=1;align=center;verticalAlign=middle;resizable=0;points=[];" parent="e7BuIWy1d0rTeOh9mKWK-146" vertex="1" connectable="0">
          <mxGeometry x="-0.0475" relative="1" as="geometry">
            <mxPoint as="offset" />
          </mxGeometry>
        </mxCell>
        <mxCell id="e7BuIWy1d0rTeOh9mKWK-140" value="&lt;span style=&quot;font-size: 18px;&quot;&gt;15&lt;/span&gt;" style="ellipse;whiteSpace=wrap;html=1;aspect=fixed;fillColor=#327CFC;direction=south;" parent="1" vertex="1">
          <mxGeometry x="434" y="504" width="40" height="40" as="geometry" />
        </mxCell>
        <mxCell id="e7BuIWy1d0rTeOh9mKWK-160" style="edgeStyle=orthogonalEdgeStyle;rounded=0;orthogonalLoop=1;jettySize=auto;html=1;entryX=0.5;entryY=0;entryDx=0;entryDy=0;" parent="1" source="e7BuIWy1d0rTeOh9mKWK-143" target="e7BuIWy1d0rTeOh9mKWK-157" edge="1">
          <mxGeometry relative="1" as="geometry" />
        </mxCell>
        <mxCell id="e7BuIWy1d0rTeOh9mKWK-164" value="T = 2" style="edgeLabel;html=1;align=center;verticalAlign=middle;resizable=0;points=[];" parent="e7BuIWy1d0rTeOh9mKWK-160" vertex="1" connectable="0">
          <mxGeometry x="-0.0363" y="2" relative="1" as="geometry">
            <mxPoint as="offset" />
          </mxGeometry>
        </mxCell>
        <mxCell id="e7BuIWy1d0rTeOh9mKWK-143" value="&lt;span style=&quot;font-size: 18px;&quot;&gt;17&lt;/span&gt;" style="ellipse;whiteSpace=wrap;html=1;aspect=fixed;fillColor=#327CFC;direction=south;" parent="1" vertex="1">
          <mxGeometry x="281" y="410" width="40" height="40" as="geometry" />
        </mxCell>
        <mxCell id="e7BuIWy1d0rTeOh9mKWK-152" style="edgeStyle=none;rounded=0;orthogonalLoop=1;jettySize=auto;html=1;entryX=0.5;entryY=0;entryDx=0;entryDy=0;" parent="1" source="e7BuIWy1d0rTeOh9mKWK-144" target="e7BuIWy1d0rTeOh9mKWK-143" edge="1">
          <mxGeometry relative="1" as="geometry">
            <mxPoint x="336" y="465" as="targetPoint" />
          </mxGeometry>
        </mxCell>
        <mxCell id="e7BuIWy1d0rTeOh9mKWK-153" value="S = 5" style="edgeLabel;html=1;align=center;verticalAlign=middle;resizable=0;points=[];" parent="e7BuIWy1d0rTeOh9mKWK-152" vertex="1" connectable="0">
          <mxGeometry x="-0.1319" relative="1" as="geometry">
            <mxPoint x="-3" y="-1" as="offset" />
          </mxGeometry>
        </mxCell>
        <mxCell id="e7BuIWy1d0rTeOh9mKWK-144" value="&lt;span style=&quot;font-size: 18px;&quot;&gt;16&lt;/span&gt;" style="ellipse;whiteSpace=wrap;html=1;aspect=fixed;fillColor=#327CFC;direction=south;" parent="1" vertex="1">
          <mxGeometry x="437" y="410" width="40" height="40" as="geometry" />
        </mxCell>
        <mxCell id="e7BuIWy1d0rTeOh9mKWK-161" style="rounded=0;orthogonalLoop=1;jettySize=auto;html=1;entryX=0.5;entryY=0;entryDx=0;entryDy=0;" parent="1" source="e7BuIWy1d0rTeOh9mKWK-157" target="e7BuIWy1d0rTeOh9mKWK-158" edge="1">
          <mxGeometry relative="1" as="geometry" />
        </mxCell>
        <mxCell id="e7BuIWy1d0rTeOh9mKWK-165" value="U = 1" style="edgeLabel;html=1;align=center;verticalAlign=middle;resizable=0;points=[];" parent="e7BuIWy1d0rTeOh9mKWK-161" vertex="1" connectable="0">
          <mxGeometry x="-0.1525" y="2" relative="1" as="geometry">
            <mxPoint as="offset" />
          </mxGeometry>
        </mxCell>
        <mxCell id="e7BuIWy1d0rTeOh9mKWK-157" value="&lt;span style=&quot;font-size: 18px;&quot;&gt;18&lt;/span&gt;" style="ellipse;whiteSpace=wrap;html=1;aspect=fixed;fillColor=#327CFC;direction=south;" parent="1" vertex="1">
          <mxGeometry x="181" y="410" width="40" height="40" as="geometry" />
        </mxCell>
        <mxCell id="e7BuIWy1d0rTeOh9mKWK-163" style="edgeStyle=none;rounded=0;orthogonalLoop=1;jettySize=auto;html=1;" parent="1" source="e7BuIWy1d0rTeOh9mKWK-158" target="e7BuIWy1d0rTeOh9mKWK-159" edge="1">
          <mxGeometry relative="1" as="geometry" />
        </mxCell>
        <mxCell id="e7BuIWy1d0rTeOh9mKWK-166" value="V = 4" style="edgeLabel;html=1;align=center;verticalAlign=middle;resizable=0;points=[];" parent="e7BuIWy1d0rTeOh9mKWK-163" vertex="1" connectable="0">
          <mxGeometry x="0.0622" y="-2" relative="1" as="geometry">
            <mxPoint as="offset" />
          </mxGeometry>
        </mxCell>
        <mxCell id="e7BuIWy1d0rTeOh9mKWK-158" value="&lt;span style=&quot;font-size: 18px;&quot;&gt;19&lt;/span&gt;" style="ellipse;whiteSpace=wrap;html=1;aspect=fixed;fillColor=#327CFC;direction=south;" parent="1" vertex="1">
          <mxGeometry x="91" y="410" width="40" height="40" as="geometry" />
        </mxCell>
        <mxCell id="e7BuIWy1d0rTeOh9mKWK-168" style="edgeStyle=none;rounded=0;orthogonalLoop=1;jettySize=auto;html=1;" parent="1" source="e7BuIWy1d0rTeOh9mKWK-159" target="e7BuIWy1d0rTeOh9mKWK-167" edge="1">
          <mxGeometry relative="1" as="geometry" />
        </mxCell>
        <mxCell id="e7BuIWy1d0rTeOh9mKWK-169" value="W = 8" style="edgeLabel;html=1;align=center;verticalAlign=middle;resizable=0;points=[];" parent="e7BuIWy1d0rTeOh9mKWK-168" vertex="1" connectable="0">
          <mxGeometry x="-0.2301" y="1" relative="1" as="geometry">
            <mxPoint as="offset" />
          </mxGeometry>
        </mxCell>
        <mxCell id="e7BuIWy1d0rTeOh9mKWK-159" value="&lt;span style=&quot;font-size: 18px;&quot;&gt;20&lt;/span&gt;" style="ellipse;whiteSpace=wrap;html=1;aspect=fixed;fillColor=#327CFC;direction=south;" parent="1" vertex="1">
          <mxGeometry x="91" y="501" width="40" height="40" as="geometry" />
        </mxCell>
        <mxCell id="e7BuIWy1d0rTeOh9mKWK-171" style="edgeStyle=none;rounded=0;orthogonalLoop=1;jettySize=auto;html=1;" parent="1" source="e7BuIWy1d0rTeOh9mKWK-167" target="e7BuIWy1d0rTeOh9mKWK-170" edge="1">
          <mxGeometry relative="1" as="geometry" />
        </mxCell>
        <mxCell id="e7BuIWy1d0rTeOh9mKWK-172" value="X = 5" style="edgeLabel;html=1;align=center;verticalAlign=middle;resizable=0;points=[];" parent="e7BuIWy1d0rTeOh9mKWK-171" vertex="1" connectable="0">
          <mxGeometry x="-0.1981" y="3" relative="1" as="geometry">
            <mxPoint x="2" y="3" as="offset" />
          </mxGeometry>
        </mxCell>
        <mxCell id="e7BuIWy1d0rTeOh9mKWK-167" value="&lt;span style=&quot;font-size: 18px;&quot;&gt;21&lt;/span&gt;" style="ellipse;whiteSpace=wrap;html=1;aspect=fixed;fillColor=#327CFC;direction=south;" parent="1" vertex="1">
          <mxGeometry x="91" y="592" width="40" height="40" as="geometry" />
        </mxCell>
        <mxCell id="e7BuIWy1d0rTeOh9mKWK-174" style="edgeStyle=none;rounded=0;orthogonalLoop=1;jettySize=auto;html=1;" parent="1" source="e7BuIWy1d0rTeOh9mKWK-170" target="e7BuIWy1d0rTeOh9mKWK-173" edge="1">
          <mxGeometry relative="1" as="geometry" />
        </mxCell>
        <mxCell id="e7BuIWy1d0rTeOh9mKWK-175" value="Y = 2" style="edgeLabel;html=1;align=center;verticalAlign=middle;resizable=0;points=[];" parent="e7BuIWy1d0rTeOh9mKWK-174" vertex="1" connectable="0">
          <mxGeometry x="-0.033" y="1" relative="1" as="geometry">
            <mxPoint as="offset" />
          </mxGeometry>
        </mxCell>
        <mxCell id="e7BuIWy1d0rTeOh9mKWK-170" value="&lt;span style=&quot;font-size: 18px;&quot;&gt;22&lt;/span&gt;" style="ellipse;whiteSpace=wrap;html=1;aspect=fixed;fillColor=#327CFC;direction=south;" parent="1" vertex="1">
          <mxGeometry x="191" y="592" width="40" height="40" as="geometry" />
        </mxCell>
        <mxCell id="e7BuIWy1d0rTeOh9mKWK-177" style="edgeStyle=none;rounded=0;orthogonalLoop=1;jettySize=auto;html=1;entryX=0.5;entryY=1;entryDx=0;entryDy=0;" parent="1" source="e7BuIWy1d0rTeOh9mKWK-173" target="e7BuIWy1d0rTeOh9mKWK-176" edge="1">
          <mxGeometry relative="1" as="geometry" />
        </mxCell>
        <mxCell id="e7BuIWy1d0rTeOh9mKWK-179" value="Z = 1" style="edgeLabel;html=1;align=center;verticalAlign=middle;resizable=0;points=[];" parent="e7BuIWy1d0rTeOh9mKWK-177" vertex="1" connectable="0">
          <mxGeometry x="-0.2545" y="-1" relative="1" as="geometry">
            <mxPoint as="offset" />
          </mxGeometry>
        </mxCell>
        <mxCell id="e7BuIWy1d0rTeOh9mKWK-173" value="&lt;span style=&quot;font-size: 18px;&quot;&gt;23&lt;/span&gt;" style="ellipse;whiteSpace=wrap;html=1;aspect=fixed;fillColor=#327CFC;direction=south;" parent="1" vertex="1">
          <mxGeometry x="287" y="592" width="40" height="40" as="geometry" />
        </mxCell>
        <mxCell id="e7BuIWy1d0rTeOh9mKWK-181" style="edgeStyle=none;rounded=0;orthogonalLoop=1;jettySize=auto;html=1;" parent="1" source="e7BuIWy1d0rTeOh9mKWK-176" target="e7BuIWy1d0rTeOh9mKWK-180" edge="1">
          <mxGeometry relative="1" as="geometry" />
        </mxCell>
        <mxCell id="e7BuIWy1d0rTeOh9mKWK-182" value="AA = 4" style="edgeLabel;html=1;align=center;verticalAlign=middle;resizable=0;points=[];" parent="e7BuIWy1d0rTeOh9mKWK-181" vertex="1" connectable="0">
          <mxGeometry x="-0.138" y="-4" relative="1" as="geometry">
            <mxPoint x="2" y="-4" as="offset" />
          </mxGeometry>
        </mxCell>
        <mxCell id="e7BuIWy1d0rTeOh9mKWK-176" value="&lt;span style=&quot;font-size: 18px;&quot;&gt;24&lt;/span&gt;" style="ellipse;whiteSpace=wrap;html=1;aspect=fixed;fillColor=#327CFC;direction=south;" parent="1" vertex="1">
          <mxGeometry x="383" y="591" width="41" height="41" as="geometry" />
        </mxCell>
        <mxCell id="e7BuIWy1d0rTeOh9mKWK-206" style="edgeStyle=none;rounded=0;orthogonalLoop=1;jettySize=auto;html=1;" parent="1" source="e7BuIWy1d0rTeOh9mKWK-180" target="e7BuIWy1d0rTeOh9mKWK-183" edge="1">
          <mxGeometry relative="1" as="geometry" />
        </mxCell>
        <mxCell id="e7BuIWy1d0rTeOh9mKWK-207" value="AB = 7" style="edgeLabel;html=1;align=center;verticalAlign=middle;resizable=0;points=[];" parent="e7BuIWy1d0rTeOh9mKWK-206" vertex="1" connectable="0">
          <mxGeometry x="-0.157" y="-2" relative="1" as="geometry">
            <mxPoint as="offset" />
          </mxGeometry>
        </mxCell>
        <mxCell id="e7BuIWy1d0rTeOh9mKWK-180" value="&lt;span style=&quot;font-size: 18px;&quot;&gt;25&lt;/span&gt;" style="ellipse;whiteSpace=wrap;html=1;aspect=fixed;fillColor=#327CFC;direction=south;" parent="1" vertex="1">
          <mxGeometry x="501" y="591.5" width="41" height="41" as="geometry" />
        </mxCell>
        <mxCell id="e7BuIWy1d0rTeOh9mKWK-194" style="edgeStyle=none;rounded=0;orthogonalLoop=1;jettySize=auto;html=1;entryX=0.5;entryY=1;entryDx=0;entryDy=0;" parent="1" source="e7BuIWy1d0rTeOh9mKWK-183" target="e7BuIWy1d0rTeOh9mKWK-184" edge="1">
          <mxGeometry relative="1" as="geometry" />
        </mxCell>
        <mxCell id="e7BuIWy1d0rTeOh9mKWK-208" value="AC = 3" style="edgeLabel;html=1;align=center;verticalAlign=middle;resizable=0;points=[];" parent="e7BuIWy1d0rTeOh9mKWK-194" vertex="1" connectable="0">
          <mxGeometry x="-0.1876" y="2" relative="1" as="geometry">
            <mxPoint x="1" y="3" as="offset" />
          </mxGeometry>
        </mxCell>
        <mxCell id="e7BuIWy1d0rTeOh9mKWK-183" value="&lt;span style=&quot;font-size: 18px;&quot;&gt;26&lt;/span&gt;" style="ellipse;whiteSpace=wrap;html=1;aspect=fixed;fillColor=#327CFC;direction=south;" parent="1" vertex="1">
          <mxGeometry x="603" y="592" width="41" height="41" as="geometry" />
        </mxCell>
        <mxCell id="e7BuIWy1d0rTeOh9mKWK-195" style="edgeStyle=none;rounded=0;orthogonalLoop=1;jettySize=auto;html=1;" parent="1" source="e7BuIWy1d0rTeOh9mKWK-184" target="e7BuIWy1d0rTeOh9mKWK-185" edge="1">
          <mxGeometry relative="1" as="geometry" />
        </mxCell>
        <mxCell id="e7BuIWy1d0rTeOh9mKWK-210" value="AD = 2" style="edgeLabel;html=1;align=center;verticalAlign=middle;resizable=0;points=[];" parent="e7BuIWy1d0rTeOh9mKWK-195" vertex="1" connectable="0">
          <mxGeometry x="-0.037" y="2" relative="1" as="geometry">
            <mxPoint x="-3" y="3" as="offset" />
          </mxGeometry>
        </mxCell>
        <mxCell id="e7BuIWy1d0rTeOh9mKWK-184" value="&lt;span style=&quot;font-size: 18px;&quot;&gt;27&lt;/span&gt;" style="ellipse;whiteSpace=wrap;html=1;aspect=fixed;fillColor=#327CFC;direction=south;" parent="1" vertex="1">
          <mxGeometry x="703" y="591" width="41" height="41" as="geometry" />
        </mxCell>
        <mxCell id="e7BuIWy1d0rTeOh9mKWK-196" style="edgeStyle=none;rounded=0;orthogonalLoop=1;jettySize=auto;html=1;" parent="1" source="e7BuIWy1d0rTeOh9mKWK-185" target="e7BuIWy1d0rTeOh9mKWK-186" edge="1">
          <mxGeometry relative="1" as="geometry" />
        </mxCell>
        <mxCell id="e7BuIWy1d0rTeOh9mKWK-211" value="AE = 1" style="edgeLabel;html=1;align=center;verticalAlign=middle;resizable=0;points=[];" parent="e7BuIWy1d0rTeOh9mKWK-196" vertex="1" connectable="0">
          <mxGeometry x="-0.1919" relative="1" as="geometry">
            <mxPoint as="offset" />
          </mxGeometry>
        </mxCell>
        <mxCell id="e7BuIWy1d0rTeOh9mKWK-185" value="&lt;span style=&quot;font-size: 18px;&quot;&gt;28&lt;/span&gt;" style="ellipse;whiteSpace=wrap;html=1;aspect=fixed;fillColor=#327CFC;direction=south;" parent="1" vertex="1">
          <mxGeometry x="806" y="591" width="41" height="41" as="geometry" />
        </mxCell>
        <mxCell id="e7BuIWy1d0rTeOh9mKWK-197" style="edgeStyle=none;rounded=0;orthogonalLoop=1;jettySize=auto;html=1;" parent="1" source="e7BuIWy1d0rTeOh9mKWK-186" target="e7BuIWy1d0rTeOh9mKWK-188" edge="1">
          <mxGeometry relative="1" as="geometry" />
        </mxCell>
        <mxCell id="e7BuIWy1d0rTeOh9mKWK-212" value="AF = 4" style="edgeLabel;html=1;align=center;verticalAlign=middle;resizable=0;points=[];" parent="e7BuIWy1d0rTeOh9mKWK-197" vertex="1" connectable="0">
          <mxGeometry x="-0.1301" relative="1" as="geometry">
            <mxPoint as="offset" />
          </mxGeometry>
        </mxCell>
        <mxCell id="e7BuIWy1d0rTeOh9mKWK-186" value="&lt;span style=&quot;font-size: 18px;&quot;&gt;29&lt;/span&gt;" style="ellipse;whiteSpace=wrap;html=1;aspect=fixed;fillColor=#327CFC;direction=south;" parent="1" vertex="1">
          <mxGeometry x="904" y="591" width="41" height="41" as="geometry" />
        </mxCell>
        <mxCell id="e7BuIWy1d0rTeOh9mKWK-198" style="edgeStyle=none;rounded=0;orthogonalLoop=1;jettySize=auto;html=1;entryX=0.5;entryY=0;entryDx=0;entryDy=0;" parent="1" source="e7BuIWy1d0rTeOh9mKWK-188" target="e7BuIWy1d0rTeOh9mKWK-189" edge="1">
          <mxGeometry relative="1" as="geometry" />
        </mxCell>
        <mxCell id="e7BuIWy1d0rTeOh9mKWK-213" value="AG = 8" style="edgeLabel;html=1;align=center;verticalAlign=middle;resizable=0;points=[];" parent="e7BuIWy1d0rTeOh9mKWK-198" vertex="1" connectable="0">
          <mxGeometry x="-0.0634" relative="1" as="geometry">
            <mxPoint as="offset" />
          </mxGeometry>
        </mxCell>
        <mxCell id="e7BuIWy1d0rTeOh9mKWK-188" value="&lt;span style=&quot;font-size: 18px;&quot;&gt;30&lt;/span&gt;" style="ellipse;whiteSpace=wrap;html=1;aspect=fixed;fillColor=#327CFC;direction=south;" parent="1" vertex="1">
          <mxGeometry x="902" y="683" width="41" height="41" as="geometry" />
        </mxCell>
        <mxCell id="e7BuIWy1d0rTeOh9mKWK-200" style="edgeStyle=none;rounded=0;orthogonalLoop=1;jettySize=auto;html=1;entryX=0.5;entryY=0;entryDx=0;entryDy=0;" parent="1" source="e7BuIWy1d0rTeOh9mKWK-189" target="e7BuIWy1d0rTeOh9mKWK-190" edge="1">
          <mxGeometry relative="1" as="geometry" />
        </mxCell>
        <mxCell id="e7BuIWy1d0rTeOh9mKWK-214" value="AH = 4" style="edgeLabel;html=1;align=center;verticalAlign=middle;resizable=0;points=[];" parent="e7BuIWy1d0rTeOh9mKWK-200" vertex="1" connectable="0">
          <mxGeometry x="0.0422" y="1" relative="1" as="geometry">
            <mxPoint x="6" y="-1" as="offset" />
          </mxGeometry>
        </mxCell>
        <mxCell id="e7BuIWy1d0rTeOh9mKWK-189" value="&lt;span style=&quot;font-size: 18px;&quot;&gt;31&lt;/span&gt;" style="ellipse;whiteSpace=wrap;html=1;aspect=fixed;fillColor=#327CFC;direction=south;" parent="1" vertex="1">
          <mxGeometry x="800" y="683" width="41" height="41" as="geometry" />
        </mxCell>
        <mxCell id="e7BuIWy1d0rTeOh9mKWK-201" style="edgeStyle=none;rounded=0;orthogonalLoop=1;jettySize=auto;html=1;" parent="1" source="e7BuIWy1d0rTeOh9mKWK-190" target="e7BuIWy1d0rTeOh9mKWK-191" edge="1">
          <mxGeometry relative="1" as="geometry" />
        </mxCell>
        <mxCell id="e7BuIWy1d0rTeOh9mKWK-215" value="AI = 2" style="edgeLabel;html=1;align=center;verticalAlign=middle;resizable=0;points=[];" parent="e7BuIWy1d0rTeOh9mKWK-201" vertex="1" connectable="0">
          <mxGeometry x="-0.0353" y="3" relative="1" as="geometry">
            <mxPoint x="1" y="-3" as="offset" />
          </mxGeometry>
        </mxCell>
        <mxCell id="e7BuIWy1d0rTeOh9mKWK-190" value="&lt;span style=&quot;font-size: 18px;&quot;&gt;32&lt;/span&gt;" style="ellipse;whiteSpace=wrap;html=1;aspect=fixed;fillColor=#327CFC;direction=south;" parent="1" vertex="1">
          <mxGeometry x="706" y="683" width="41" height="41" as="geometry" />
        </mxCell>
        <mxCell id="e7BuIWy1d0rTeOh9mKWK-202" style="edgeStyle=none;rounded=0;orthogonalLoop=1;jettySize=auto;html=1;" parent="1" source="e7BuIWy1d0rTeOh9mKWK-191" target="e7BuIWy1d0rTeOh9mKWK-192" edge="1">
          <mxGeometry relative="1" as="geometry" />
        </mxCell>
        <mxCell id="e7BuIWy1d0rTeOh9mKWK-219" value="AJ = 5" style="edgeLabel;html=1;align=center;verticalAlign=middle;resizable=0;points=[];" parent="e7BuIWy1d0rTeOh9mKWK-202" vertex="1" connectable="0">
          <mxGeometry x="-0.1279" y="1" relative="1" as="geometry">
            <mxPoint as="offset" />
          </mxGeometry>
        </mxCell>
        <mxCell id="e7BuIWy1d0rTeOh9mKWK-191" value="&lt;span style=&quot;font-size: 18px;&quot;&gt;33&lt;/span&gt;" style="ellipse;whiteSpace=wrap;html=1;aspect=fixed;fillColor=#327CFC;direction=south;" parent="1" vertex="1">
          <mxGeometry x="600" y="683" width="41" height="41" as="geometry" />
        </mxCell>
        <mxCell id="e7BuIWy1d0rTeOh9mKWK-218" style="edgeStyle=none;rounded=0;orthogonalLoop=1;jettySize=auto;html=1;entryX=0.5;entryY=0;entryDx=0;entryDy=0;" parent="1" source="e7BuIWy1d0rTeOh9mKWK-192" target="e7BuIWy1d0rTeOh9mKWK-217" edge="1">
          <mxGeometry relative="1" as="geometry" />
        </mxCell>
        <mxCell id="e7BuIWy1d0rTeOh9mKWK-220" value="AK = 5" style="edgeLabel;html=1;align=center;verticalAlign=middle;resizable=0;points=[];" parent="e7BuIWy1d0rTeOh9mKWK-218" vertex="1" connectable="0">
          <mxGeometry x="-0.128" y="3" relative="1" as="geometry">
            <mxPoint x="2" y="-3" as="offset" />
          </mxGeometry>
        </mxCell>
        <mxCell id="e7BuIWy1d0rTeOh9mKWK-192" value="&lt;span style=&quot;font-size: 18px;&quot;&gt;34&lt;/span&gt;" style="ellipse;whiteSpace=wrap;html=1;aspect=fixed;fillColor=#327CFC;direction=south;" parent="1" vertex="1">
          <mxGeometry x="495" y="683" width="41" height="41" as="geometry" />
        </mxCell>
        <mxCell id="e7BuIWy1d0rTeOh9mKWK-203" style="edgeStyle=none;rounded=0;orthogonalLoop=1;jettySize=auto;html=1;exitX=0.5;exitY=1;exitDx=0;exitDy=0;" parent="1" source="e7BuIWy1d0rTeOh9mKWK-190" target="e7BuIWy1d0rTeOh9mKWK-190" edge="1">
          <mxGeometry relative="1" as="geometry" />
        </mxCell>
        <mxCell id="e7BuIWy1d0rTeOh9mKWK-225" style="edgeStyle=none;rounded=0;orthogonalLoop=1;jettySize=auto;html=1;entryX=0.5;entryY=0;entryDx=0;entryDy=0;" parent="1" source="e7BuIWy1d0rTeOh9mKWK-217" target="e7BuIWy1d0rTeOh9mKWK-222" edge="1">
          <mxGeometry relative="1" as="geometry" />
        </mxCell>
        <mxCell id="e7BuIWy1d0rTeOh9mKWK-229" value="AL = 5" style="edgeLabel;html=1;align=center;verticalAlign=middle;resizable=0;points=[];" parent="e7BuIWy1d0rTeOh9mKWK-225" vertex="1" connectable="0">
          <mxGeometry x="0.0608" relative="1" as="geometry">
            <mxPoint as="offset" />
          </mxGeometry>
        </mxCell>
        <mxCell id="e7BuIWy1d0rTeOh9mKWK-217" value="&lt;span style=&quot;font-size: 18px;&quot;&gt;35&lt;/span&gt;" style="ellipse;whiteSpace=wrap;html=1;aspect=fixed;fillColor=#327CFC;direction=south;" parent="1" vertex="1">
          <mxGeometry x="390" y="683" width="41" height="41" as="geometry" />
        </mxCell>
        <mxCell id="e7BuIWy1d0rTeOh9mKWK-221" value="&lt;span style=&quot;font-size: 18px;&quot;&gt;37&lt;/span&gt;" style="ellipse;whiteSpace=wrap;html=1;aspect=fixed;fillColor=#327CFC;direction=south;" parent="1" vertex="1">
          <mxGeometry x="190" y="683" width="41" height="41" as="geometry" />
        </mxCell>
        <mxCell id="e7BuIWy1d0rTeOh9mKWK-226" style="edgeStyle=none;rounded=0;orthogonalLoop=1;jettySize=auto;html=1;entryX=0.5;entryY=0;entryDx=0;entryDy=0;" parent="1" source="e7BuIWy1d0rTeOh9mKWK-222" target="e7BuIWy1d0rTeOh9mKWK-221" edge="1">
          <mxGeometry relative="1" as="geometry" />
        </mxCell>
        <mxCell id="e7BuIWy1d0rTeOh9mKWK-230" value="AM =4" style="edgeLabel;html=1;align=center;verticalAlign=middle;resizable=0;points=[];" parent="e7BuIWy1d0rTeOh9mKWK-226" vertex="1" connectable="0">
          <mxGeometry x="-0.1355" y="-1" relative="1" as="geometry">
            <mxPoint as="offset" />
          </mxGeometry>
        </mxCell>
        <mxCell id="e7BuIWy1d0rTeOh9mKWK-227" style="edgeStyle=none;rounded=0;orthogonalLoop=1;jettySize=auto;html=1;entryX=0.5;entryY=0;entryDx=0;entryDy=0;" parent="1" source="e7BuIWy1d0rTeOh9mKWK-222" target="e7BuIWy1d0rTeOh9mKWK-223" edge="1">
          <mxGeometry relative="1" as="geometry" />
        </mxCell>
        <mxCell id="e7BuIWy1d0rTeOh9mKWK-231" value="AN = 3" style="edgeLabel;html=1;align=center;verticalAlign=middle;resizable=0;points=[];" parent="e7BuIWy1d0rTeOh9mKWK-227" vertex="1" connectable="0">
          <mxGeometry x="-0.2094" y="3" relative="1" as="geometry">
            <mxPoint as="offset" />
          </mxGeometry>
        </mxCell>
        <mxCell id="e7BuIWy1d0rTeOh9mKWK-222" value="&lt;span style=&quot;font-size: 18px;&quot;&gt;36&lt;/span&gt;" style="ellipse;whiteSpace=wrap;html=1;aspect=fixed;fillColor=#327CFC;direction=south;" parent="1" vertex="1">
          <mxGeometry x="291" y="683" width="41" height="41" as="geometry" />
        </mxCell>
        <mxCell id="e7BuIWy1d0rTeOh9mKWK-223" value="&lt;span style=&quot;font-size: 18px;&quot;&gt;38&lt;/span&gt;" style="ellipse;whiteSpace=wrap;html=1;aspect=fixed;fillColor=#327CFC;direction=south;" parent="1" vertex="1">
          <mxGeometry x="190.5" y="743" width="41" height="41" as="geometry" />
        </mxCell>
      </root>
    </mxGraphModel>
  </diagram>
</mxfile>
